<?xml version="1.0" encoding="UTF-8"?>
<svg id="Layer_1" data-name="Layer 1" xmlns="http://www.w3.org/2000/svg" viewBox="0 0 1500 514.19">
  <defs>
    <style>
      .cls-1 {
        fill: #00b1ff;
      }

      .cls-1, .cls-2, .cls-3 {
        stroke-width: 0px;
      }

      .cls-2 {
        fill: #000555;
      }

      .cls-3 {
        fill: #0086ff;
      }
    </style>
  </defs>
  <g>
    <path class="cls-3" d="M359.51,315.27l-75.81-43.77,75.81-43.77c39.77-22.96,53.39-73.81,30.43-113.58l-148.51,85.74v-119.99h0c-3.11,4.66-8.6,8.19-16.81,10.65-6.19,1.88-13.96,3.17-23.38,3.96h-.94c-23.73.91-42.01,21.01-42.01,44.77v59.82L11.15,114.15c-22.96,39.77-9.33,90.62,30.43,113.58l75.81,43.77-75.81,43.77c-39.77,22.96-53.39,73.81-30.43,113.58l147.67-85.25-.19,170.6c45.93,0,83.19-37.21,83.24-83.15l.1-87.63,147.98,85.43c22.96-39.77,9.33-90.62-30.43-113.58Z"/>
    <path class="cls-1" d="M242.81,0v34.36c0,22.29-17.65,41.79-39.94,43.65h-.93c-24.15.93-37.15,11.15-43.65,20.43v-38.08c0-24.15,18.58-44.58,42.72-45.51h.93c22.29-1.86,35.29-6.5,40.87-14.86Z"/>
  </g>
  <g>
    <path class="cls-2" d="M677.02,355.67h-116.07l-19.94,56.64h-47.47l99.32-277.61h52.65l99.31,277.61h-47.86l-19.95-56.64ZM664.26,318.58l-45.07-128.83-45.47,128.83h90.54Z"/>
    <path class="cls-2" d="M833.37,117.15v295.16h-45.47V117.15h45.47Z"/>
    <path class="cls-2" d="M938.67,117.15v295.16h-45.47V117.15h45.47Z"/>
    <path class="cls-2" d="M1197.52,192.54v219.77h-45.47v-25.93c-7.18,9.04-16.55,16.15-28.12,21.34-11.56,5.18-23.87,7.78-36.89,7.78-17.29,0-32.78-3.59-46.47-10.77-13.7-7.18-24.47-17.81-32.31-31.91-7.85-14.09-11.77-31.11-11.77-51.05v-129.23h45.07v122.45c0,19.68,4.92,34.77,14.76,45.27,9.83,10.51,23.26,15.75,40.28,15.75s30.51-5.25,40.48-15.75c9.97-10.5,14.96-25.59,14.96-45.27v-122.45h45.47Z"/>
    <path class="cls-2" d="M1351.48,301.03l71,111.28h-51.45l-47.46-74.59-44.67,74.59h-47.47l71-108.09-71-111.68h51.45l47.47,74.59,44.67-74.59h47.46l-71,108.49Z"/>
  </g>
  <path class="cls-1" d="M1500,117.81v21.77c0,14.52-9.86,26.85-23,27.58h-.66c-13.8.73-21.69,7.26-25.63,13.06v-24.68c0-15.24,11.17-28.31,24.97-29.03h.66c13.14,0,20.37-2.9,23.66-8.71Z"/>
  <path class="cls-2" d="M1498.03,169.18v243.13h-46.01v-210.79c0-4.11,1.63-8.05,4.6-10.53,4.5-3.77,11.14-6.78,20.38-7.29h.66c9.2,0,17.09-5.81,20.37-14.52Z"/>
</svg>